<?xml version="1.0" encoding="UTF-8"?>
<svg id="Layer_1" xmlns="http://www.w3.org/2000/svg" version="1.1" viewBox="0 0 792 612">
  <!-- Generator: Adobe Illustrator 29.8.1, SVG Export Plug-In . SVG Version: 2.1.1 Build 2)  -->
  <defs>
    <style>
      .st0, .st1 {
        fill: #231f20;
      }

      .st1 {
        font-family: AntarcticanHeadline-Bold, 'Antarctican Headline';
        font-size: 60px;
        font-weight: 700;
      }
    </style>
  </defs>
  <path class="st0" d="M122.14,328.95l47.32-16.45c.94-.33,1.98-.13,2.73.52l16.88,14.56c.76.66,1.92.53,2.52-.28l42.34-57.36c.27-.37.7-.59,1.16-.59l22.69-.32c.79-.01,1.46-.59,1.58-1.38l7.89-51.98c.11-.76,1.05-1.04,1.57-.48l42.91,46.84c.54.59.68,1.44.37,2.18l-26.5,61.13c-.18.42-.41.82-.66,1.2l-23.04,33.67c-.33.48.28,1.05.74.69l70.07-54.52c.49-.38.85-.89,1.06-1.47l18-50.69,24.91,15.49c.45.28.98-.23.72-.69l-23.33-41.4c-.42-.74-1.41-.92-2.06-.37l-28.83,24.52c-.38.32-.96.27-1.28-.11l-53.15-64.38c-.6-.73-1.7-.79-2.38-.14l-72.36,69.54c-.67.65-1.52,1.08-2.45,1.25l-11.16,2c-.79.14-1.51.55-2.04,1.16l-57.23,66.34c-.63.73.11,1.82,1.02,1.5Z"/>
  <text class="st1" transform="translate(384.23 269.5)"><tspan x="0" y="0">SkyHigh </tspan><tspan x="0" y="64">Adventures</tspan></text>
</svg>